<?xml version="1.0" encoding="utf-8"?><svg width="166" height="128" viewBox="0 0 166 128" xmlns="http://www.w3.org/2000/svg" xmlns:xlink="http://www.w3.org/1999/xlink"><svg width="18" height="20" fill="none" viewBox="-2 -2 18 20" id="calendar" x="128" xmlns="http://www.w3.org/2000/svg"><path d="M4.608 9H3.363a.375.375 0 01-.374-.375v-1.25c0-.206.168-.375.374-.375h1.245c.206 0 .374.169.374.375v1.25A.375.375 0 014.608 9zm3.363-.375v-1.25A.375.375 0 007.597 7H6.352a.375.375 0 00-.374.375v1.25c0 .206.168.375.374.375h1.245a.375.375 0 00.374-.375zm2.989 0v-1.25A.375.375 0 0010.586 7H9.341a.375.375 0 00-.374.375v1.25c0 .206.168.375.374.375h1.245a.375.375 0 00.374-.375zm-2.99 3v-1.25A.375.375 0 007.598 10H6.352a.375.375 0 00-.374.375v1.25c0 .206.168.375.374.375h1.245a.375.375 0 00.374-.375zm-2.988 0v-1.25A.375.375 0 004.608 10H3.363a.375.375 0 00-.374.375v1.25c0 .206.168.375.374.375h1.245a.375.375 0 00.374-.375zm5.978 0v-1.25a.375.375 0 00-.374-.375H9.341a.375.375 0 00-.374.375v1.25c0 .206.168.375.374.375h1.245a.375.375 0 00.374-.375zM13.949 3.5v11c0 .828-.67 1.5-1.495 1.5H1.494A1.498 1.498 0 010 14.5v-11C0 2.672.67 2 1.495 2h1.494V.375c0-.206.168-.375.374-.375h1.245c.206 0 .374.169.374.375V2h3.985V.375c0-.206.168-.375.374-.375h1.245c.206 0 .374.169.374.375V2h1.494c.825 0 1.495.672 1.495 1.5zm-1.495 10.813V5H1.494v9.313c0 .103.085.187.187.187h10.586a.188.188 0 00.187-.188z" fill="#000"/></svg><svg width="20" height="20" fill="none" viewBox="-2 -2 20 20" id="clear" x="146" xmlns="http://www.w3.org/2000/svg"><path d="M8 16c-4.4 0-8-3.6-8-8s3.6-8 8-8 8 3.6 8 8-3.6 8-8 8zm4-10.88L10.88 4 8 6.88 5.12 4 4 5.12 6.88 8 4 10.88 5.12 12 8 9.12 10.88 12 12 10.88 9.12 8 12 5.12z" fill="#CCC"/></svg><svg width="18" height="20" fill="none" viewBox="-2 -2 18 20" id="clock" x="146" y="20" xmlns="http://www.w3.org/2000/svg"><path d="M12.279 5.75l.704-.706a.376.376 0 000-.531l-.53-.532a.374.374 0 00-.53 0l-.645.647a6.433 6.433 0 00-3.547-1.587V1.5h.873a.376.376 0 00.374-.375v-.75A.376.376 0 008.604 0H5.362a.376.376 0 00-.374.375v.75c0 .206.168.375.374.375h.873v1.544A6.493 6.493 0 00.499 9.5c0 3.59 2.902 6.5 6.484 6.5 3.581 0 6.484-2.91 6.484-6.5 0-1.397-.44-2.69-1.188-3.75zM6.983 14.5a4.992 4.992 0 01-4.988-5c0-2.763 2.232-5 4.988-5a4.992 4.992 0 014.987 5c0 2.762-2.232 5-4.987 5zm.374-3.5h-.748a.376.376 0 01-.374-.375v-4.25c0-.206.168-.375.374-.375h.748c.205 0 .374.169.374.375v4.25a.376.376 0 01-.374.375z" fill="#000"/></svg><svg width="20" height="12" fill="none" viewBox="-2 -2 20 12" id="code-commit" x="146" y="40" xmlns="http://www.w3.org/2000/svg"><path d="M3.2 4c0 .27.022.537.065.8H.3a.3.3 0 01-.3-.3v-1a.3.3 0 01.3-.3h2.965c-.042.262-.065.53-.065.8zm12.5-.8h-2.965a5.006 5.006 0 010 1.6H15.7a.3.3 0 00.3-.3v-1a.3.3 0 00-.3-.3zM8 1.2a2.79 2.79 0 00-1.98.82A2.78 2.78 0 005.2 4c0 .747.29 1.45.82 1.98A2.79 2.79 0 008 6.8a2.79 2.79 0 001.98-.82c.53-.53.82-1.233.82-1.98 0-.748-.29-1.45-.82-1.98A2.79 2.79 0 008 1.2zM8 0c2.21 0 4 1.79 4 4s-1.79 4-4 4-4-1.79-4-4 1.79-4 4-4z" fill="#000"/></svg><svg width="20" height="20" fill="none" viewBox="-2 -2 20 20" id="done" x="146" y="52" xmlns="http://www.w3.org/2000/svg"><path d="M15.104 8A7.104 7.104 0 11.896 8a7.104 7.104 0 0114.208 0zM7.178 11.76l5.271-5.27a.458.458 0 000-.648l-.648-.649a.458.458 0 00-.648 0L6.854 9.493 4.847 7.486a.458.458 0 00-.648 0l-.648.648a.458.458 0 000 .648l2.98 2.98c.178.178.468.178.647 0z" fill="#00B341"/></svg><svg width="20" height="20" fill="none" viewBox="-2 -2 20 20" id="fail" x="146" y="72" xmlns="http://www.w3.org/2000/svg"><path d="M8 .896A7.103 7.103 0 00.896 8 7.103 7.103 0 008 15.104 7.103 7.103 0 0015.104 8 7.103 7.103 0 008 .896zm3.483 8.969a.344.344 0 010 .487l-1.134 1.131a.344.344 0 01-.487 0L8 9.604l-1.865 1.88a.344.344 0 01-.487 0l-1.131-1.135a.344.344 0 010-.487L6.396 8l-1.88-1.865a.344.344 0 010-.487l1.135-1.134a.344.344 0 01.487 0L8 6.396l1.865-1.88a.344.344 0 01.487 0l1.134 1.135a.344.344 0 010 .487L9.604 8l1.88 1.865z" fill="#F33"/></svg><svg width="128" height="128" fill="none" viewBox="-2 -2 128 128" id="logo" xmlns="http://www.w3.org/2000/svg"><path d="M54.253 23.272V35.09l7.193 7.192c-1.647-8.427.848-17.024 6.903-23.078 4.916-4.916 11.431-7.556 18.165-7.556h.29L72.902 25.5l3.657 21.94 21.944 3.657L112.38 37.22c.073 6.853-2.567 13.44-7.556 18.428-2.253 2.252-4.893 3.972-7.702 5.231.436.387.945.702 1.356 1.114l7.436 7.434c2.543-1.525 4.965-3.366 7.12-5.545 9.228-9.227 13.007-22.836 9.858-35.501a8.463 8.463 0 00-5.91-6.103 8.407 8.407 0 00-8.235 2.18L94.53 38.648l-7.847-1.307-1.308-7.846 14.193-14.191c2.156-2.155 2.979-5.304 2.156-8.234a8.414 8.414 0 00-6.104-5.933c-12.885-3.196-26.133.485-35.506 9.832-2.47 2.47-4.48 5.255-6.128 8.21l.267.193v3.899zm-28.58 86.67c-3.1 3.1-8.55 3.1-11.65 0a8.21 8.21 0 01-2.422-5.812c0-2.203.848-4.262 2.422-5.811l32.552-32.547-8.21-8.21L5.812 90.085C2.059 93.839 0 98.827 0 104.13c0 5.304 2.059 10.292 5.813 14.046 3.754 3.753 8.743 5.812 14.047 5.812 5.305 0 10.294-2.059 14.048-5.812l24.438-24.434c-2.35-3.827-3.682-8.186-3.803-12.617l-28.87 28.817zm95.693-14.118L93.004 67.467c-5.594-5.594-13.95-6.684-20.683-3.366L46.502 38.286V23.248L15.501 0 0 15.498l23.251 30.998h15.04l25.82 25.814c-3.295 6.732-2.23 15.087 3.366 20.68l28.361 28.358c3.536 3.536 9.252 3.536 12.764 0l12.764-12.762c3.512-3.535 3.512-9.25 0-12.762z" fill="#000" fill-opacity=".1"/></svg><svg width="13" height="14" fill="none" viewBox="-2 -2 13 14" id="play" x="128" y="54" xmlns="http://www.w3.org/2000/svg"><path d="M8.289 4.193L1.414.128C.855-.202 0 .118 0 .935v8.127a.937.937 0 001.414.806l6.875-4.062a.936.936 0 000-1.613z" fill="#111"/></svg><svg width="16" height="16" fill="none" viewBox="-2 -2 16 16" id="rebuild" x="146" y="112" xmlns="http://www.w3.org/2000/svg"><path d="M8.775 3.031a4.036 4.036 0 00-2.779-1.096 4.07 4.07 0 00-3.938 3.07.291.291 0 01-.282.22H.39a.29.29 0 01-.286-.342 6.002 6.002 0 0110.04-3.221l.865-.864a.58.58 0 01.991.41v3.244c0 .32-.26.58-.58.58H8.175a.58.58 0 01-.41-.991l1.01-1.01zM.581 6.968h3.243a.58.58 0 01.41.991l-1.01 1.01a4.035 4.035 0 002.78 1.096 4.07 4.07 0 003.938-3.07.291.291 0 01.282-.22h1.386a.29.29 0 01.286.342 6.002 6.002 0 01-10.04 3.221l-.865.864a.58.58 0 01-.991-.41V7.548c0-.32.26-.58.58-.58z" fill="#000"/></svg><svg width="16" height="16" fill="none" viewBox="-2 -2 16 16" id="settings" x="128" y="38" xmlns="http://www.w3.org/2000/svg"><path d="M11.466 7.442l-1.03-.595a4.662 4.662 0 000-1.699l1.03-.595a.292.292 0 00.133-.338 6.026 6.026 0 00-1.324-2.29.291.291 0 00-.358-.055l-1.03.595a4.566 4.566 0 00-1.471-.849V.428a.29.29 0 00-.228-.283 6.082 6.082 0 00-2.641 0 .29.29 0 00-.228.283v1.19a4.71 4.71 0 00-1.47.85l-1.03-.595a.287.287 0 00-.357.055A5.99 5.99 0 00.138 4.217a.29.29 0 00.134.339l1.03.595a4.66 4.66 0 000 1.698l-1.03.595a.292.292 0 00-.134.34c.269.86.726 1.64 1.324 2.288.092.099.242.123.358.055l1.03-.595c.434.373.932.66 1.472.85v1.19a.29.29 0 00.227.283 6.082 6.082 0 002.642 0 .29.29 0 00.227-.283v-1.19a4.71 4.71 0 001.471-.85l1.03.595a.287.287 0 00.359-.055A5.989 5.989 0 0011.6 7.783a.299.299 0 00-.135-.341zm-5.599.491a1.938 1.938 0 01-1.935-1.935c0-1.067.869-1.936 1.935-1.936 1.067 0 1.936.869 1.936 1.936a1.938 1.938 0 01-1.936 1.935z" fill="#111"/></svg><svg width="17" height="18" fill="none" viewBox="-2 -2 17 18" id="user" x="128" y="20" xmlns="http://www.w3.org/2000/svg"><path d="M6.125 7a3.5 3.5 0 100-7 3.5 3.5 0 000 7zm2.45.875h-.457a4.765 4.765 0 01-3.986 0h-.457A3.676 3.676 0 000 11.55v1.137C0 13.412.588 14 1.313 14h9.624c.725 0 1.313-.588 1.313-1.313V11.55a3.676 3.676 0 00-3.675-3.675z" fill="#000"/></svg><svg width="20" height="20" fill="none" viewBox="-2 -2 20 20" id="wait" x="146" y="92" xmlns="http://www.w3.org/2000/svg"><path d="M8 .667A7.332 7.332 0 00.667 8 7.332 7.332 0 008 15.333 7.332 7.332 0 0015.333 8 7.332 7.332 0 008 .667zm2.735 9.255l-.591.74a.474.474 0 01-.666.073l-1.98-1.47a1.183 1.183 0 01-.444-.923v-4.6a.473.473 0 01.473-.473h.946a.473.473 0 01.473.473V8l1.715 1.257a.473.473 0 01.074.665z" fill="#FF9A00"/></svg></svg>