<svg width="16" height="16" viewBox="0 0 16 16" fill="none" xmlns="http://www.w3.org/2000/svg">
<path d="M15.1042 7.99992C15.1042 11.9235 11.9236 15.1041 8.00004 15.1041C4.07651 15.1041 0.895874 11.9235 0.895874 7.99992C0.895874 4.07639 4.07651 0.895752 8.00004 0.895752C11.9236 0.895752 15.1042 4.07639 15.1042 7.99992ZM7.17831 11.7615L12.4491 6.49068C12.6281 6.31171 12.6281 6.02149 12.4491 5.84251L11.801 5.19435C11.622 5.01534 11.3318 5.01534 11.1528 5.19435L6.85421 9.49288L4.84731 7.48598C4.66833 7.307 4.37812 7.307 4.19911 7.48598L3.55094 8.13415C3.37196 8.31313 3.37196 8.60334 3.55094 8.78232L6.53011 11.7615C6.70912 11.9405 6.9993 11.9405 7.17831 11.7615Z" fill="#00B341"/>
</svg>
