<svg width="16" height="16" viewBox="0 0 16 16" fill="none" xmlns="http://www.w3.org/2000/svg">
<path d="M8.00004 0.895752C4.07556 0.895752 0.895874 4.07544 0.895874 7.99992C0.895874 11.9244 4.07556 15.1041 8.00004 15.1041C11.9245 15.1041 15.1042 11.9244 15.1042 7.99992C15.1042 4.07544 11.9245 0.895752 8.00004 0.895752ZM11.4834 9.86476C11.618 9.9994 11.618 10.2171 11.4834 10.3517L10.349 11.4833C10.2144 11.6179 9.99666 11.6179 9.86202 11.4833L8.00004 9.60409L6.1352 11.4833C6.00056 11.6179 5.78285 11.6179 5.64822 11.4833L4.51671 10.3489C4.38207 10.2142 4.38207 9.99653 4.51671 9.8619L6.39587 7.99992L4.51671 6.13507C4.38207 6.00044 4.38207 5.78273 4.51671 5.6481L5.65108 4.51372C5.78572 4.37909 6.00343 4.37909 6.13806 4.51372L8.00004 6.39575L9.86488 4.51659C9.99952 4.38195 10.2172 4.38195 10.3519 4.51659L11.4862 5.65096C11.6209 5.7856 11.6209 6.0033 11.4862 6.13794L9.60421 7.99992L11.4834 9.86476Z" fill="#FF3333"/>
</svg>
