<svg width="16" height="16" viewBox="0 0 16 16" fill="none" xmlns="http://www.w3.org/2000/svg">
<path d="M7.99996 0.666748C3.94888 0.666748 0.666626 3.94901 0.666626 8.00008C0.666626 12.0512 3.94888 15.3334 7.99996 15.3334C12.051 15.3334 15.3333 12.0512 15.3333 8.00008C15.3333 3.94901 12.051 0.666748 7.99996 0.666748ZM10.7349 9.92212L10.1435 10.6614C10.1047 10.7099 10.0567 10.7503 10.0023 10.7803C9.94783 10.8102 9.88803 10.8292 9.82628 10.8361C9.76452 10.8429 9.70202 10.8376 9.64234 10.8203C9.58266 10.803 9.52697 10.7741 9.47845 10.7353L7.49727 9.26508C7.35884 9.15425 7.24711 9.01371 7.17033 8.85386C7.09355 8.69401 7.0537 8.51894 7.05372 8.34161V3.74202C7.05372 3.61654 7.10357 3.4962 7.1923 3.40747C7.28102 3.31874 7.40136 3.2689 7.52684 3.2689H8.47308C8.59856 3.2689 8.7189 3.31874 8.80762 3.40747C8.89635 3.4962 8.9462 3.61654 8.9462 3.74202V8.00008L10.6612 9.2568C10.7098 9.29564 10.7502 9.34366 10.7802 9.39812C10.8102 9.45258 10.8291 9.51241 10.8359 9.5742C10.8428 9.63599 10.8374 9.69852 10.82 9.75822C10.8027 9.81792 10.7738 9.87361 10.7349 9.92212Z" fill="#FF9A00"/>
</svg>
